# Blender 4.0.0
# www.blender.org
mtllib L.mtl
o L
v -1.000000 1.000000 -1.000000
v -1.000000 -0.000000 -1.000000
v -1.000000 0.000000 1.000000
v -1.000000 1.000000 1.000000
v 1.000000 0.000000 1.000000
v 1.000000 1.000000 1.000000
v 1.000000 -0.000000 -1.000000
v 1.000000 1.000000 -1.000000
v -0.900000 -0.000000 -0.900000
v -0.900000 0.000000 0.900000
v -0.900000 1.000000 -0.900000
v -0.900000 1.000000 0.900000
v 0.900000 0.000000 0.900000
v 0.900000 1.000000 0.900000
v 0.900000 -0.000000 -0.900000
v 0.900000 1.000000 -0.900000
v -0.893465 -0.000000 -0.900000
v 0.893466 -0.000000 -0.900000
v -0.893465 0.800000 -0.900000
v 0.893466 0.800000 -0.900000
v -0.893465 -0.000000 -1.000000
v 0.893466 -0.000000 -1.000000
v -0.893465 0.800000 -1.000000
v 0.893466 0.800000 -1.000000
v 0.900000 0.800000 0.895222
v 0.900000 0.800000 -0.895222
v 0.900000 0.000000 0.895222
v 0.900000 -0.000000 -0.895222
v 1.000000 0.000000 0.895222
v 1.000000 -0.000000 -0.895222
v 1.000000 0.800000 0.895222
v 1.000000 0.800000 -0.895222
v -1.000000 0.000000 1.000000
v 1.000000 0.000000 1.000000
v -1.000000 -0.000000 -1.000000
v 1.000000 -0.000000 -1.000000
vn 1.0000 -0.0000 -0.0000
vn -0.0000 -0.0000 -1.0000
vn -1.0000 -0.0000 -0.0000
vn -0.0000 -0.0000 1.0000
vn -0.0000 -1.0000 -0.0000
vn -0.0000 1.0000 -0.0000
vt 0.000000 0.000000
vt 0.000000 1.000000
vt 1.000000 0.000000
vt 1.000000 0.222222
vt 1.000000 1.000000
vt 1.000000 0.777778
vt 0.777778 1.000000
vt 0.222222 1.000000
vt 1.000000 0.250000
vt 1.000000 0.750000
vt 0.750000 1.000000
vt 0.250000 1.000000
s 0
usemtl Material.006
f 12/1/1 10/1/1 9/2/1 11/2/1
f 12/1/2 14/3/2 13/3/2 10/1/2
f 27/4/3 13/3/3 14/3/3 16/5/3 15/5/3 28/6/3 26/6/3 25/4/3
f 18/7/4 15/5/4 16/5/4 11/2/4 9/2/4 17/8/4 19/8/4 20/7/4
f 10/1/5 3/1/5 2/2/5 9/2/5
f 1/2/6 4/1/6 12/1/6 11/2/6
f 5/3/5 3/1/5 10/1/5 13/3/5
f 12/1/6 4/1/6 6/3/6 14/3/6
f 5/3/5 13/3/5 27/4/5 29/9/5
f 28/6/5 15/5/5 7/5/5 30/10/5
f 6/3/6 8/5/6 16/5/6 14/3/6
f 15/5/5 18/7/5 22/11/5 7/5/5
f 9/2/5 2/2/5 21/12/5 17/8/5
f 16/5/6 8/5/6 1/2/6 11/2/6
f 4/1/3 1/2/3 2/2/3 3/1/3
f 5/3/4 6/3/4 4/1/4 3/1/4
f 7/5/1 8/5/1 6/3/1 5/3/1 29/9/1 31/9/1 32/10/1 30/10/1
f 23/12/2 21/12/2 2/2/2 1/2/2 8/5/2 7/5/2 22/11/2 24/11/2
f 20/1/5 19/1/5 23/1/5 24/1/5
f 23/1/1 19/1/1 17/1/1 21/1/1
f 18/1/3 20/1/3 24/1/3 22/1/3
f 27/1/2 25/1/2 31/1/2 29/1/2
f 26/1/5 32/1/5 31/1/5 25/1/5
f 26/1/4 28/1/4 30/1/4 32/1/4
f 33/1/6 34/3/6 36/5/6 35/2/6
