# Blender 4.0.0
# www.blender.org
mtllib T.mtl
o T
v -1.000000 1.000000 -1.000000
v -1.000000 -0.000000 -1.000000
v -1.000000 0.000000 1.000000
v -1.000000 1.000000 1.000000
v 1.000000 0.000000 1.000000
v 1.000000 1.000000 1.000000
v 1.000000 -0.000000 -1.000000
v 1.000000 1.000000 -1.000000
v -0.900000 -0.000000 -0.900000
v -0.900000 0.000000 0.900000
v -0.900000 1.000000 -0.900000
v -0.900000 1.000000 0.900000
v 0.900000 0.000000 0.900000
v 0.900000 1.000000 0.900000
v 0.900000 -0.000000 -0.900000
v 0.900000 1.000000 -0.900000
v -0.892570 0.800000 0.900000
v 0.892570 0.800000 0.900000
v -0.892570 0.000000 0.900000
v 0.892570 0.000000 0.900000
v -0.892570 -0.000000 -0.900000
v 0.892570 -0.000000 -0.900000
v -0.892570 0.800000 -0.900000
v 0.892570 0.800000 -0.900000
v -0.892570 0.000000 1.000000
v 0.892570 0.000000 1.000000
v -0.892570 -0.000000 -1.000000
v 0.892570 -0.000000 -1.000000
v -0.892570 0.800000 1.000000
v 0.892570 0.800000 1.000000
v -0.892570 0.800000 -1.000000
v 0.892570 0.800000 -1.000000
v 0.900000 0.800000 0.899674
v 0.900000 0.800000 -0.899674
v 0.900000 0.000000 0.899674
v 0.900000 -0.000000 -0.899674
v 1.000000 0.000000 0.899674
v 1.000000 -0.000000 -0.899674
v 1.000000 0.800000 0.899674
v 1.000000 0.800000 -0.899674
v -1.000000 0.000000 1.000000
v 1.000000 0.000000 1.000000
v -1.000000 -0.000000 -1.000000
v 1.000000 -0.000000 -1.000000
vn 1.0000 -0.0000 -0.0000
vn -0.0000 -0.0000 -1.0000
vn -1.0000 -0.0000 -0.0000
vn -0.0000 -0.0000 1.0000
vn -0.0000 -1.0000 -0.0000
vn -0.0000 1.0000 -0.0000
vt 0.000000 0.000000
vt 0.000000 1.000000
vt 0.222222 0.000000
vt 1.000000 0.000000
vt 0.777778 0.000000
vt 1.000000 0.222222
vt 1.000000 1.000000
vt 1.000000 0.777778
vt 0.777778 1.000000
vt 0.222222 1.000000
vt 0.250000 0.000000
vt 0.750000 0.000000
vt 1.000000 0.250000
vt 1.000000 0.750000
vt 0.750000 1.000000
vt 0.250000 1.000000
s 0
usemtl Material.008
f 12/1/1 10/1/1 9/2/1 11/2/1
f 17/3/2 19/3/2 10/1/2 12/1/2 14/4/2 13/4/2 20/5/2 18/5/2
f 35/6/3 13/4/3 14/4/3 16/7/3 15/7/3 36/8/3 34/8/3 33/6/3
f 22/9/4 15/7/4 16/7/4 11/2/4 9/2/4 21/10/4 23/10/4 24/9/4
f 10/1/5 3/1/5 2/2/5 9/2/5
f 1/2/6 4/1/6 12/1/6 11/2/6
f 10/1/5 19/3/5 25/11/5 3/1/5
f 13/4/5 5/4/5 26/12/5 20/5/5
f 12/1/6 4/1/6 6/4/6 14/4/6
f 5/4/5 13/4/5 35/6/5 37/13/5
f 36/8/5 15/7/5 7/7/5 38/14/5
f 6/4/6 8/7/6 16/7/6 14/4/6
f 15/7/5 22/9/5 28/15/5 7/7/5
f 9/2/5 2/2/5 27/16/5 21/10/5
f 16/7/6 8/7/6 1/2/6 11/2/6
f 4/1/3 1/2/3 2/2/3 3/1/3
f 26/12/4 5/4/4 6/4/4 4/1/4 3/1/4 25/11/4 29/11/4 30/12/4
f 7/7/1 8/7/1 6/4/1 5/4/1 37/13/1 39/13/1 40/14/1 38/14/1
f 31/16/2 27/16/2 2/2/2 1/2/2 8/7/2 7/7/2 28/15/2 32/15/2
f 24/1/5 23/1/5 31/1/5 32/1/5
f 17/1/5 18/1/5 30/1/5 29/1/5
f 31/1/1 23/1/1 21/1/1 27/1/1
f 19/1/1 17/1/1 29/1/1 25/1/1
f 24/1/3 32/1/3 28/1/3 22/1/3
f 30/1/3 18/1/3 20/1/3 26/1/3
f 35/1/2 33/1/2 39/1/2 37/1/2
f 34/1/5 40/1/5 39/1/5 33/1/5
f 34/1/4 36/1/4 38/1/4 40/1/4
f 41/1/6 42/4/6 44/7/6 43/2/6
