# Blender 3.5.1
# www.blender.org
mtllib X.mtl
o X
v -1.000000 1.000000 -1.000000
v -1.000000 0.000000 -1.000000
v -1.000000 0.000000 1.000000
v -1.000000 1.000000 1.000000
v 1.000000 0.000000 1.000000
v 1.000000 1.000000 1.000000
v 1.000000 0.000000 -1.000000
v 1.000000 1.000000 -1.000000
v -0.900000 0.000000 -0.900000
v -0.900000 0.000000 0.900000
v -0.900000 1.000000 -0.900000
v -0.900000 1.000000 0.900000
v 0.900000 0.000000 0.900000
v 0.900000 1.000000 0.900000
v 0.900000 0.000000 -0.900000
v 0.900000 1.000000 -0.900000
v -0.500000 0.800000 0.900000
v 0.500000 0.800000 0.900000
v -0.500000 0.000000 0.900000
v 0.500000 0.000000 0.900000
v -0.500000 0.000000 -0.900000
v 0.500000 0.000000 -0.900000
v -0.500000 0.800000 -0.900000
v 0.500000 0.800000 -0.900000
v -0.500000 0.000000 1.000000
v 0.500000 0.000000 1.000000
v -0.500000 0.000000 -1.000000
v 0.500000 0.000000 -1.000000
v -0.500000 0.800000 1.000000
v 0.500000 0.800000 1.000000
v -0.500000 0.800000 -1.000000
v 0.500000 0.800000 -1.000000
v -0.900000 0.000000 0.500000
v -0.900000 0.000000 -0.500000
v -0.900000 0.800000 0.500000
v -0.900000 0.800000 -0.500000
v 0.900000 0.800000 0.500000
v 0.900000 0.800000 -0.500000
v 0.900000 0.000000 0.500000
v 0.900000 0.000000 -0.500000
v -1.000000 0.000000 0.500000
v -1.000000 0.000000 -0.500000
v 1.000000 0.000000 0.500000
v 1.000000 0.000000 -0.500000
v -1.000000 0.800000 0.500000
v -1.000000 0.800000 -0.500000
v 1.000000 0.800000 0.500000
v 1.000000 0.800000 -0.500000
v -1.000000 0.000000 1.000000
v 1.000000 0.000000 1.000000
v -1.000000 0.000000 -1.000000
v 1.000000 0.000000 -1.000000
vn 1.0000 -0.0000 -0.0000
vn -0.0000 -0.0000 -1.0000
vn -1.0000 -0.0000 -0.0000
vn -0.0000 -0.0000 1.0000
vn -0.0000 -1.0000 -0.0000
vn -0.0000 1.0000 -0.0000
vt 0.000000 1.000000
vt 0.000000 1.000000
vt 0.000000 0.000000
vt 0.000000 0.000000
vt 1.000000 0.000000
vt 1.000000 0.000000
vt 1.000000 1.000000
vt 1.000000 1.000000
vt 0.000000 1.000000
vt 0.000000 0.000000
vt 0.000000 1.000000
vt 0.000000 0.000000
vt 1.000000 0.000000
vt 1.000000 0.000000
vt 1.000000 1.000000
vt 1.000000 1.000000
vt 0.222222 0.000000
vt 0.000000 0.000000
vt 0.777778 0.000000
vt 0.000000 0.000000
vt 0.222222 0.000000
vt 0.000000 0.000000
vt 0.777778 0.000000
vt 0.000000 0.000000
vt 0.222222 1.000000
vt 0.000000 0.000000
vt 0.777778 1.000000
vt 0.000000 0.000000
vt 0.222222 1.000000
vt 0.000000 0.000000
vt 0.777778 1.000000
vt 0.000000 0.000000
vt 0.250000 0.000000
vt 0.000000 0.000000
vt 0.750000 0.000000
vt 0.000000 0.000000
vt 0.250000 1.000000
vt 0.000000 0.000000
vt 0.750000 1.000000
vt 0.000000 0.000000
vt 0.250000 0.000000
vt 0.000000 0.000000
vt 0.750000 0.000000
vt 0.000000 0.000000
vt 0.250000 1.000000
vt 0.000000 0.000000
vt 0.750000 1.000000
vt 0.000000 0.000000
vt 0.000000 0.222222
vt 0.000000 0.000000
vt 0.000000 0.777778
vt 0.000000 0.000000
vt 0.000000 0.222222
vt 0.000000 0.000000
vt 0.000000 0.777778
vt 0.000000 0.000000
vt 1.000000 0.222222
vt 0.000000 0.000000
vt 1.000000 0.777778
vt 0.000000 0.000000
vt 1.000000 0.222222
vt 0.000000 0.000000
vt 1.000000 0.777778
vt 0.000000 0.000000
vt 0.000000 0.250000
vt 0.000000 0.000000
vt 0.000000 0.750000
vt 0.000000 0.000000
vt 1.000000 0.250000
vt 0.000000 0.000000
vt 1.000000 0.750000
vt 0.000000 0.000000
vt 0.000000 0.250000
vt 0.000000 0.000000
vt 0.000000 0.750000
vt 0.000000 0.000000
vt 1.000000 0.250000
vt 0.000000 0.000000
vt 1.000000 0.750000
vt 0.000000 0.000000
vt 0.000000 0.000000
vt 1.000000 0.000000
vt 0.000000 1.000000
vt 1.000000 1.000000
s 0
usemtl 
f 9/9/1 11/11/1 12/12/1 10/10/1 33/49/1 35/53/1 36/55/1 34/51/1
f 17/17/2 19/21/2 10/10/2 12/12/2 14/14/2 13/13/2 20/23/2 18/19/2
f 39/61/3 13/13/3 14/14/3 16/16/3 15/15/3 40/63/3 38/59/3 37/57/3
f 22/27/4 15/15/4 16/16/4 11/11/4 9/9/4 21/25/4 23/29/4 24/31/4
f 42/67/5 2/2/5 9/9/5 34/51/5
f 10/10/5 3/3/5 41/65/5 33/49/5
f 1/1/6 4/4/6 12/12/6 11/11/6
f 10/10/5 19/21/5 25/33/5 3/3/5
f 13/13/5 5/5/5 26/35/5 20/23/5
f 12/12/6 4/4/6 6/6/6 14/14/6
f 5/5/5 13/13/5 39/61/5 43/69/5
f 40/63/5 15/15/5 7/7/5 44/71/5
f 6/6/6 8/8/6 16/16/6 14/14/6
f 15/15/5 22/27/5 28/39/5 7/7/5
f 9/9/5 2/2/5 27/37/5 21/25/5
f 16/16/6 8/8/6 1/1/6 11/11/6
f 3/3/3 4/4/3 1/1/3 2/2/3 42/67/3 46/75/3 45/73/3 41/65/3
f 26/35/4 5/5/4 6/6/4 4/4/4 3/3/4 25/33/4 29/41/4 30/43/4
f 7/7/1 8/8/1 6/6/1 5/5/1 43/69/1 47/77/1 48/79/1 44/71/1
f 31/45/2 27/37/2 2/2/2 1/1/2 8/8/2 7/7/2 28/39/2 32/47/2
f 24/32/5 23/30/5 31/46/5 32/48/5
f 17/18/5 18/20/5 30/44/5 29/42/5
f 31/46/1 23/30/1 21/26/1 27/38/1
f 19/22/1 17/18/1 29/42/1 25/34/1
f 24/32/3 32/48/3 28/40/3 22/28/3
f 30/44/3 18/20/3 20/24/3 26/36/3
f 39/62/2 37/58/2 47/78/2 43/70/2
f 33/50/2 41/66/2 45/74/2 35/54/2
f 38/60/5 48/80/5 47/78/5 37/58/5
f 46/76/5 36/56/5 35/54/5 45/74/5
f 38/60/4 40/64/4 44/72/4 48/80/4
f 34/52/4 36/56/4 46/76/4 42/68/4
f 49/81/6 50/82/6 52/84/6 51/83/6
